<svg xmlns="http://www.w3.org/2000/svg" width="64" height="64" viewBox="0 0 64 64" fill="none">
  <defs>
    <clipPath id="clip"><rect x="6" y="6" width="52" height="52" rx="16"/></clipPath>
    <linearGradient id="shine" x1="32" y1="6" x2="32" y2="58" gradientUnits="userSpaceOnUse">
      <stop offset="0" stop-color="#FFFFFF" stop-opacity="0.18"/>
      <stop offset="0.34" stop-color="#FFFFFF" stop-opacity="0.05"/>
      <stop offset="1" stop-color="#FFFFFF" stop-opacity="0"/>
    </linearGradient>
  </defs>
  <rect x="6" y="7.5" width="52" height="52" rx="16" fill="#020817" opacity="0.28"/>
  <g clip-path="url(#clip)">
    <rect x="6" y="6" width="52" height="52" fill="#108553"/>
    <circle cx="44" cy="19" r="8" fill="#FFFFFF" fill-opacity="0.17"/>
    <path d="M29.5 19.5c-6.2 0-11.2 5.2-11.2 11.6s5 11.4 11.2 11.4c4.6 0 8.7-2.7 10.5-6.7-2 1.3-4.3 2.1-6.9 2.1-6.3 0-11.4-5.1-11.4-11.4 0-2.6.9-5.1 2.5-7.1 1.6-.7 3.3-1.1 5.3-1.1z" fill="#FFFFFF" opacity="0.95"/>
    <path d="M41.8 18.6 43 22.1 46.6 22.1 43.7 24.2 44.8 27.7 41.8 25.6 38.8 27.7 40 24.2 37 22.1 40.6 22.1 41.8 18.6Z" fill="#FFFFFF"/>
    <path d="M20 44.5h24" stroke="#F5D77A" stroke-opacity="0.85" stroke-width="2.4" stroke-linecap="round"/>
    <path d="M24.5 40.3c1.8 2.3 4 3.5 6.9 3.5 3.7 0 6.5-1.9 8.7-5.6" stroke="#F7FAFF" stroke-width="2.6" stroke-linecap="round" stroke-linejoin="round"/>
    <path d="M26.7 31.4c.8 4.2 2.9 6.3 6.4 6.3 1.7 0 3.5-.6 5.4-1.7" stroke="#F7FAFF" stroke-width="2.3" stroke-linecap="round" stroke-linejoin="round"/>
    <circle cx="26.4" cy="28.9" r="1.6" fill="#F7FAFF"/>
    <circle cx="31.6" cy="28.2" r="1.6" fill="#F7FAFF"/>
    <circle cx="36.8" cy="27.4" r="1.6" fill="#F7FAFF"/>
    <circle cx="42" cy="26.6" r="1.6" fill="#F7FAFF"/>
    <rect x="6" y="6" width="52" height="24" fill="url(#shine)"/>
  </g>
  <rect x="6.75" y="6.75" width="50.5" height="50.5" rx="15.25" stroke="#F7FAFF" stroke-opacity="0.95" stroke-width="1.5"/>
  <rect x="6" y="6" width="52" height="52" rx="16" stroke="#0A1125" stroke-width="2"/>
</svg>