<svg xmlns="http://www.w3.org/2000/svg" width="64" height="64" viewBox="0 0 64 64" fill="none">
  <defs>
    <clipPath id="clip"><rect x="6" y="6" width="52" height="52" rx="16"/></clipPath>
    <linearGradient id="shine" x1="32" y1="6" x2="32" y2="58" gradientUnits="userSpaceOnUse">
      <stop offset="0" stop-color="#FFFFFF" stop-opacity="0.18"/>
      <stop offset="0.34" stop-color="#FFFFFF" stop-opacity="0.05"/>
      <stop offset="1" stop-color="#FFFFFF" stop-opacity="0"/>
    </linearGradient>
  </defs>
  <rect x="6" y="7.5" width="52" height="52" rx="16" fill="#020817" opacity="0.28"/>
  <g clip-path="url(#clip)">
    <rect x="6" y="6" width="52" height="52" fill="#DE3E31"/>
    <path d="M19.5 15.5 21.8 22.1 28.8 22.2 23.2 26.2 25.3 32.8 19.5 28.7 13.7 32.8 15.8 26.2 10.2 22.2 17.2 22.1 19.5 15.5Z" fill="#F7D34B"/>
    <g fill="#F7D34B">
      <path d="M31 14.8 31.9 17.4 34.6 17.4 32.4 19 33.3 21.6 31 20 28.7 21.6 29.6 19 27.4 17.4 30.1 17.4 31 14.8Z"/>
      <path d="M35.7 20.8 36.6 23.4 39.3 23.4 37.1 25 38 27.6 35.7 26 33.4 27.6 34.3 25 32.1 23.4 34.8 23.4 35.7 20.8Z"/>
      <path d="M35.2 28 36.1 30.6 38.8 30.6 36.6 32.2 37.5 34.8 35.2 33.2 32.9 34.8 33.8 32.2 31.6 30.6 34.3 30.6 35.2 28Z"/>
      <path d="M30 33 30.9 35.6 33.6 35.6 31.4 37.2 32.3 39.8 30 38.2 27.7 39.8 28.6 37.2 26.4 35.6 29.1 35.6 30 33Z"/>
    </g>
    <rect x="6" y="6" width="52" height="24" fill="url(#shine)"/>
  </g>
  <rect x="6.75" y="6.75" width="50.5" height="50.5" rx="15.25" stroke="#F7FAFF" stroke-opacity="0.95" stroke-width="1.5"/>
  <rect x="6" y="6" width="52" height="52" rx="16" stroke="#0A1125" stroke-width="2"/>
</svg>