<svg xmlns="http://www.w3.org/2000/svg" width="64" height="64" viewBox="0 0 64 64" fill="none">
  <defs>
    <linearGradient id="arOuter" x1="8" y1="6" x2="56" y2="58" gradientUnits="userSpaceOnUse">
      <stop stop-color="#2CC47B"/>
      <stop offset="1" stop-color="#0D2A23"/>
    </linearGradient>
    <filter id="arShadow" x="0" y="0" width="64" height="64" filterUnits="userSpaceOnUse" color-interpolation-filters="sRGB">
      <feDropShadow dx="0" dy="4" stdDeviation="4" flood-color="#000000" flood-opacity=".26"/>
    </filter>
    <clipPath id="arClip"><rect x="8" y="8" width="48" height="48" rx="16"/></clipPath>
  </defs>
  <g filter="url(#arShadow)">
    <rect x="4" y="4" width="56" height="56" rx="18" fill="url(#arOuter)"/>
    <rect x="4.5" y="4.5" width="55" height="55" rx="17.5" stroke="#D9E3FF" stroke-opacity=".18"/>
    <g clip-path="url(#arClip)">
      <rect x="8" y="8" width="48" height="48" rx="16" fill="#0F8A56"/>
      <rect x="8" y="8" width="48" height="7" fill="#38D08A" opacity=".22"/>
      <path d="M22.4 30c0-4.2 3.3-7.7 7.5-8 2.2-.2 4.1.3 5.6 1.4-2.1-3.2-5.8-5.2-9.9-4.8-5.4.4-9.6 5-9.6 10.4 0 5.7 4.6 10.3 10.3 10.3 4.4 0 8.2-2.8 9.7-6.6-1.6 1.3-3.6 2.2-6 2.3-4.2.2-7.6-3.2-7.6-7.4z" fill="#F8FBFF" opacity=".96"/>
      <path d="M39.7 24.1l1.2 3 3.2.2-2.5 2 1 3.1-2.8-1.7-2.7 1.7.9-3.1-2.5-2 3.2-.2 1-3z" fill="#F8FBFF"/>
      <text x="32" y="43" text-anchor="middle" fill="#F8FBFF" font-family="'Noto Naskh Arabic','Amiri','Segoe UI',Arial,sans-serif" font-size="15" font-weight="700">ع</text>
    </g>
    <rect x="17" y="46" width="30" height="11" rx="5.5" fill="#091127" fill-opacity=".94"/>
    <rect x="17.5" y="46.5" width="29" height="10" rx="5" stroke="#D8E3FF" stroke-opacity=".14"/>
    <text x="32" y="54" text-anchor="middle" fill="#F8FBFF" font-family="Inter, Arial, Helvetica, sans-serif" font-size="10" font-weight="800" letter-spacing=".9">AR</text>
  </g>
</svg>
