<svg xmlns="http://www.w3.org/2000/svg" width="64" height="64" viewBox="0 0 64 64" fill="none">
  <defs>
    <linearGradient id="outer" x1="8" y1="6" x2="56" y2="58" gradientUnits="userSpaceOnUse">
      <stop stop-color="#2E67DB"/>
      <stop offset="1" stop-color="#14264E"/>
    </linearGradient>
    <linearGradient id="shine" x1="12" y1="8" x2="50" y2="36" gradientUnits="userSpaceOnUse">
      <stop stop-color="#ffffff" stop-opacity=".28"/>
      <stop offset=".6" stop-color="#ffffff" stop-opacity=".06"/>
      <stop offset="1" stop-color="#ffffff" stop-opacity="0"/>
    </linearGradient>
    <clipPath id="flagClip">
      <rect x="9" y="9" width="46" height="36" rx="14"/>
    </clipPath>
    <filter id="shadow" x="0" y="0" width="64" height="64" filterUnits="userSpaceOnUse" color-interpolation-filters="sRGB">
      <feDropShadow dx="0" dy="4" stdDeviation="4" flood-color="#000000" flood-opacity=".26"/>
    </filter>
  </defs>
  <g filter="url(#shadow)">
    <rect x="4" y="4" width="56" height="56" rx="18" fill="url(#outer)"/>
    <rect x="4.5" y="4.5" width="55" height="55" rx="17.5" stroke="#C8D5FF" stroke-opacity=".18"/>
    <rect x="9" y="9" width="46" height="36" rx="14" fill="#0A1022"/>
    <g clip-path="url(#flagClip)">
      
<rect x="9" y="9" width="46" height="18" fill="#1F6FFF"/>
<rect x="9" y="27" width="46" height="18" fill="#FFD447"/>
<path d="M32 15l6 4v6c0 5-3.1 9.4-6 11-2.9-1.6-6-6-6-11v-6l6-4z" fill="#F5D24B" fill-opacity=".96"/>
<path d="M32 20v10m-4-6c2 1.2 6 1.2 8 0m-7.4 3.4h6.8m-6 2.8h5.2" stroke="#F8FBFF" stroke-width="1.7" stroke-linecap="round"/>

    </g>
    <path d="M12 12c8-6 22-8 34-4 2 .7 4.2 1.7 6 3.2" stroke="url(#shine)" stroke-width="3" stroke-linecap="round"/>
    <rect x="17" y="46" width="30" height="11" rx="5.5" fill="#091127" fill-opacity=".92"/>
    <rect x="17.5" y="46.5" width="29" height="10" rx="5" stroke="#D8E3FF" stroke-opacity=".14"/>
    <text x="32" y="54" text-anchor="middle" fill="#F8FBFF" font-family="Inter, Arial, Helvetica, sans-serif" font-size="10" font-weight="800" letter-spacing=".9">UA</text>
  </g>
</svg>
