<svg xmlns="http://www.w3.org/2000/svg" width="64" height="64" viewBox="0 0 64 64" fill="none">
  <defs>
    <linearGradient id="outer" x1="8" y1="6" x2="56" y2="58" gradientUnits="userSpaceOnUse">
      <stop stop-color="#8A2020"/>
      <stop offset="1" stop-color="#A56D1A"/>
    </linearGradient>
    <linearGradient id="shine" x1="12" y1="8" x2="50" y2="36" gradientUnits="userSpaceOnUse">
      <stop stop-color="#ffffff" stop-opacity=".28"/>
      <stop offset=".6" stop-color="#ffffff" stop-opacity=".06"/>
      <stop offset="1" stop-color="#ffffff" stop-opacity="0"/>
    </linearGradient>
    <clipPath id="flagClip">
      <rect x="9" y="9" width="46" height="36" rx="14"/>
    </clipPath>
    <filter id="shadow" x="0" y="0" width="64" height="64" filterUnits="userSpaceOnUse" color-interpolation-filters="sRGB">
      <feDropShadow dx="0" dy="4" stdDeviation="4" flood-color="#000000" flood-opacity=".26"/>
    </filter>
  </defs>
  <g filter="url(#shadow)">
    <rect x="4" y="4" width="56" height="56" rx="18" fill="url(#outer)"/>
    <rect x="4.5" y="4.5" width="55" height="55" rx="17.5" stroke="#C8D5FF" stroke-opacity=".18"/>
    <rect x="9" y="9" width="46" height="36" rx="14" fill="#0A1022"/>
    <g clip-path="url(#flagClip)">
      
<rect x="9" y="9" width="46" height="36" fill="#D44343"/>
<polygon points="32.00,18.50 34.00,24.25 40.08,24.37 35.23,28.05 37.00,33.88 32.00,30.40 27.00,33.88 28.77,28.05 23.92,24.37 30.00,24.25" fill="#F4D14D"/>

    </g>
    <path d="M12 12c8-6 22-8 34-4 2 .7 4.2 1.7 6 3.2" stroke="url(#shine)" stroke-width="3" stroke-linecap="round"/>
    <rect x="17" y="46" width="30" height="11" rx="5.5" fill="#091127" fill-opacity=".92"/>
    <rect x="17.5" y="46.5" width="29" height="10" rx="5" stroke="#D8E3FF" stroke-opacity=".14"/>
    <text x="32" y="54" text-anchor="middle" fill="#F8FBFF" font-family="Inter, Arial, Helvetica, sans-serif" font-size="10" font-weight="800" letter-spacing=".9">VI</text>
  </g>
</svg>
