<svg xmlns="http://www.w3.org/2000/svg" width="64" height="64" viewBox="0 0 64 64" fill="none" role="img">
  <defs>
    <clipPath id="clip"><rect x="6" y="6" width="52" height="52" rx="16"/></clipPath>
    <linearGradient id="shine" x1="32" y1="6" x2="32" y2="58" gradientUnits="userSpaceOnUse">
      <stop offset="0" stop-color="#FFFFFF" stop-opacity="0.22"/>
      <stop offset="0.28" stop-color="#FFFFFF" stop-opacity="0.08"/>
      <stop offset="0.6" stop-color="#FFFFFF" stop-opacity="0.02"/>
      <stop offset="1" stop-color="#FFFFFF" stop-opacity="0"/>
    </linearGradient>
    <linearGradient id="rim" x1="8" y1="8" x2="56" y2="56" gradientUnits="userSpaceOnUse">
      <stop offset="0" stop-color="#FFFFFF" stop-opacity="0.95"/>
      <stop offset="0.5" stop-color="#FFFFFF" stop-opacity="0.75"/>
      <stop offset="1" stop-color="#C7D4FF" stop-opacity="0.85"/>
    </linearGradient>
    
  </defs>
  <rect x="6" y="7.5" width="52" height="52" rx="16" fill="#020817" opacity="0.34"/>
  <g clip-path="url(#clip)">
    
<rect x="6" y="6" width="52" height="52" fill="#E34A3A"/>
<path d="M19.5 16.2l1.87 4.78 5.13.35-3.97 3.26 1.29 4.98-4.32-2.95-4.33 2.95 1.29-4.98-3.97-3.26 5.13-.35 1.88-4.78z" fill="#FFD85B"/>
<path d="M30.9 14.4l.77 1.96 2.1.15-1.62 1.34.52 2.03-1.77-1.21-1.77 1.21.53-2.03-1.62-1.34 2.09-.15.77-1.96z" fill="#FFD85B"/>
<path d="M35.9 20.4l.77 1.96 2.1.15-1.62 1.34.52 2.03-1.77-1.21-1.77 1.21.53-2.03-1.62-1.34 2.09-.15.77-1.96z" fill="#FFD85B"/>
<path d="M35.1 28.1l.77 1.96 2.1.15-1.62 1.34.52 2.03-1.77-1.21-1.77 1.21.53-2.03-1.62-1.34 2.09-.15.77-1.96z" fill="#FFD85B"/>
<path d="M28.9 33.1l.77 1.96 2.1.15-1.62 1.34.52 2.03-1.77-1.21-1.77 1.21.53-2.03-1.62-1.34 2.09-.15.77-1.96z" fill="#FFD85B"/>

    <rect x="6" y="6" width="52" height="23" fill="url(#shine)"/>
  </g>
  <rect x="6.85" y="6.85" width="50.3" height="50.3" rx="15.15" stroke="url(#rim)" stroke-width="1.7"/>
  <rect x="6" y="6" width="52" height="52" rx="16" stroke="#0A1227" stroke-width="2"/>
</svg>