<svg xmlns="http://www.w3.org/2000/svg" width="64" height="64" viewBox="0 0 64 64" fill="none">
  <defs>
    <clipPath id="flag-clip"><rect x="9" y="13" width="46" height="38" rx="11"/></clipPath>
    <linearGradient id="frame" x1="9" y1="13" x2="55" y2="51" gradientUnits="userSpaceOnUse">
      <stop offset="0" stop-color="#FFFFFF"/>
      <stop offset="1" stop-color="#D9E2F2"/>
    </linearGradient>
    <linearGradient id="shine" x1="32" y1="13" x2="32" y2="30" gradientUnits="userSpaceOnUse">
      <stop offset="0" stop-color="#FFFFFF" stop-opacity="0.20"/>
      <stop offset="1" stop-color="#FFFFFF" stop-opacity="0"/>
    </linearGradient>
  </defs>

  <rect x="8" y="12" width="48" height="40" rx="12" fill="#071126" opacity="0.22"/>
  <rect x="9" y="13" width="46" height="38" rx="11" fill="url(#frame)"/>

  <g clip-path="url(#flag-clip)">
    <rect x="9" y="13" width="46" height="38" fill="#1F4AA8"/>

    <!-- broad white diagonals -->
    <path d="M9 16.2L20.1 13H30.2L9 20.3V16.2Z" fill="#FFFFFF"/>
    <path d="M55 16.2L43.9 13H33.8L55 20.3V16.2Z" fill="#FFFFFF"/>
    <path d="M9 47.8L20.1 51H30.2L9 43.7V47.8Z" fill="#FFFFFF"/>
    <path d="M55 47.8L43.9 51H33.8L55 43.7V47.8Z" fill="#FFFFFF"/>
    <path d="M9 13L14.4 13L55 42.7V51H49.6L9 21.3V13Z" fill="#FFFFFF"/>
    <path d="M55 13L49.6 13L9 42.7V51H14.4L55 21.3V13Z" fill="#FFFFFF"/>

    <!-- red diagonals -->
    <path d="M9 13L9 15.9L32.8 33.1H37.7L9 13Z" fill="#D83349"/>
    <path d="M55 13L55 15.9L31.2 33.1H26.3L55 13Z" fill="#D83349"/>
    <path d="M9 51L9 48.1L32.8 30.9H37.7L9 51Z" fill="#D83349"/>
    <path d="M55 51L55 48.1L31.2 30.9H26.3L55 51Z" fill="#D83349"/>

    <!-- white cross -->
    <rect x="27.5" y="13" width="9" height="38" fill="#FFFFFF"/>
    <rect x="9" y="27.5" width="46" height="9" fill="#FFFFFF"/>

    <!-- red cross -->
    <rect x="29.4" y="13" width="5.2" height="38" fill="#D83349"/>
    <rect x="9" y="29.4" width="46" height="5.2" fill="#D83349"/>

    <rect x="9" y="13" width="46" height="18" fill="url(#shine)"/>
  </g>

  <rect x="9.5" y="13.5" width="45" height="37" rx="10.5" stroke="#FFFFFF" stroke-opacity="0.82"/>
  <rect x="9" y="13" width="46" height="38" rx="11" stroke="#0A1430" stroke-width="1.4"/>
</svg>
