<svg xmlns="http://www.w3.org/2000/svg" width="64" height="64" viewBox="0 0 64 64" fill="none" role="img">
  <defs>
    <clipPath id="clip"><rect x="6" y="6" width="52" height="52" rx="16"/></clipPath>
    <linearGradient id="shine" x1="32" y1="6" x2="32" y2="58" gradientUnits="userSpaceOnUse">
      <stop offset="0" stop-color="#FFFFFF" stop-opacity="0.22"/>
      <stop offset="0.28" stop-color="#FFFFFF" stop-opacity="0.08"/>
      <stop offset="0.6" stop-color="#FFFFFF" stop-opacity="0.02"/>
      <stop offset="1" stop-color="#FFFFFF" stop-opacity="0"/>
    </linearGradient>
    <linearGradient id="rim" x1="8" y1="8" x2="56" y2="56" gradientUnits="userSpaceOnUse">
      <stop offset="0" stop-color="#FFFFFF" stop-opacity="0.95"/>
      <stop offset="0.5" stop-color="#FFFFFF" stop-opacity="0.75"/>
      <stop offset="1" stop-color="#C7D4FF" stop-opacity="0.85"/>
    </linearGradient>
    
  </defs>
  <rect x="6" y="7.5" width="52" height="52" rx="16" fill="#020817" opacity="0.34"/>
  <g clip-path="url(#clip)">
    
<rect x="6" y="6" width="52" height="52" fill="#264C9A"/>
<g opacity="0.98">
  <path d="M6 11.7V6h5.7L58 52.3V58h-5.7L6 11.7z" fill="#FFFFFF"/>
  <path d="M52.3 6H58v5.7L11.7 58H6v-5.7L52.3 6z" fill="#FFFFFF"/>
  <path d="M6 9.6V6h3.6L58 54.4V58h-3.6L6 9.6z" fill="#D74452"/>
  <path d="M54.4 6H58v3.6L9.6 58H6v-3.6L54.4 6z" fill="#D74452"/>
  <rect x="26.1" y="6" width="11.8" height="52" fill="#FFFFFF"/>
  <rect x="6" y="26.1" width="52" height="11.8" fill="#FFFFFF"/>
  <rect x="28.5" y="6" width="7" height="52" fill="#D74452"/>
  <rect x="6" y="28.5" width="52" height="7" fill="#D74452"/>
</g>

    <rect x="6" y="6" width="52" height="23" fill="url(#shine)"/>
  </g>
  <rect x="6.85" y="6.85" width="50.3" height="50.3" rx="15.15" stroke="url(#rim)" stroke-width="1.7"/>
  <rect x="6" y="6" width="52" height="52" rx="16" stroke="#0A1227" stroke-width="2"/>
</svg>